<?xml version="1.0" encoding="utf-8"?>
<!-- Generator: Adobe Illustrator 16.0.0, SVG Export Plug-In . SVG Version: 6.00 Build 0)  -->
<!DOCTYPE svg PUBLIC "-//W3C//DTD SVG 1.1//EN" "http://www.w3.org/Graphics/SVG/1.1/DTD/svg11.dtd">
<svg version="1.1" id="Vrstva_1" xmlns="http://www.w3.org/2000/svg" xmlns:xlink="http://www.w3.org/1999/xlink" x="0px" y="0px"
	 width="146.02px" height="146.726px" viewBox="0 0 146.02 146.726" enable-background="new 0 0 146.02 146.726"
	 xml:space="preserve">
<g>
	<polygon fill="#414042" points="135.76,12.266 131.8,8.316 126,14.136 129.93,18.096 	"/>
	<path fill="#414042" d="M73.97,88.396c0.7-0.7,1.85-0.7,2.55,0c0.71,0.699,0.71,1.85,0,2.55l-24.23,24.25l3.94,3.939l23.91-23.909
		c2.87-2.87,2.89-7.551,0-10.44c-1.33-1.33-3.04-2.04-4.78-2.14c-0.24-1.48-0.92-2.88-2.05-4.03l-3.62,3.63c0.7,0.7,0.7,1.84,0,2.54
		l-49.13,49.13l3.96,3.93L73.97,88.396z"/>
	<path fill="#414042" d="M67.09,82.196c2.89-2.9,2.89-7.57,0.01-10.46c-2.89-2.88-7.58-2.88-10.46,0L12.4,115.965
		c-2.87,2.88-2.89,7.61-0.02,10.48c2.9,2.88,7.59,2.86,10.47-0.03L67.09,82.196z M16.02,122.826c-0.71-0.72-0.71-1.88,0-2.58
		l44.9-44.9c0.7-0.699,1.85-0.699,2.55,0.021c0.7,0.68,0.7,1.83,0,2.53l-44.9,44.91C17.87,123.526,16.72,123.526,16.02,122.826z"/>
	<polygon fill="#414042" points="92.29,89.856 95.69,93.236 101.49,87.425 98.11,84.026 	"/>
	<path fill="#414042" d="M130.74,25.966c-0.25-1.48-0.92-2.9-2.05-4.03l-3.61,3.62c0.7,0.71,0.7,1.85-0.02,2.55l-49.11,49.13
		l3.93,3.93l49.48-49.45c0.7-0.7,1.85-0.7,2.55,0c0.7,0.7,0.7,1.85,0,2.55l-49.47,49.46l3.95,3.949l49.13-49.129
		c2.88-2.87,2.88-7.57,0-10.44C134.19,26.776,132.48,26.076,130.74,25.966z"/>
	<polygon fill="#414042" points="73.36,74.666 127.38,20.646 123.42,16.686 69.42,70.706 	"/>
	<polygon fill="#414042" points="20.64,2.216 10.78,12.066 14.74,16.026 28.55,2.216 	"/>
	<polygon fill="#414042" points="33.65,2.216 17.29,18.576 21.25,22.526 41.56,2.216 	"/>
	<polygon fill="#414042" points="46.67,2.216 23.8,25.085 27.74,29.036 54.56,2.216 	"/>
	<path fill="#414042" d="M45.62,37.125l34.89-34.91h-7.89l-7.21,7.21c-0.28-0.52-0.66-1.01-1.09-1.46c-2.88-2.87-7.59-2.87-10.46,0
		l-18.7,18.7c-2.88,2.89-2.89,7.6-0.02,10.48c1.33,1.33,3.08,2.01,4.8,2.12c0.25,1.47,0.94,2.89,2.07,4.03l3.61-3.62
		C44.92,38.976,44.9,37.826,45.62,37.125z M41.33,33.516c-0.7,0.7-1.85,0.7-2.54,0c-0.72-0.7-0.72-1.85-0.02-2.55l19.38-19.38
		c0.7-0.7,1.85-0.7,2.55,0.01c0.71,0.69,0.71,1.84,0,2.54L41.33,33.516z"/>
	<polygon fill="#414042" points="67.52,2.216 61.3,2.216 64.41,5.326 	"/>
	<polygon fill="#414042" points="85.71,2.216 43.32,44.605 47.28,48.556 93.6,2.216 	"/>
	<path fill="#414042" d="M78.99,29.846l23.9-23.91c1.06-1.06,1.75-2.35,2.02-3.72h-6.18l-23.68,23.68L78.99,29.846z"/>
	<path fill="#414042" d="M71.71,63.206l42.96-42.94l-3.95-3.96l-43.29,43.29c-0.7,0.7-1.85,0.7-2.55,0.02
		c-0.71-0.72-0.71-1.87,0-2.57l45.84-45.84l6.5,6.51l3.62-3.62l-6.51-6.5l5.37-5.38h-7.91l-50.53,50.55
		c-2.87,2.88-2.89,7.59-0.02,10.48C64.12,66.125,68.83,66.105,71.71,63.206z"/>
	<path fill="#414042" d="M0,0v146.726h146.02V0H0z M2,108.175l45.87-45.859c0.7-0.7,1.85-0.7,2.55,0c0.7,0.7,0.7,1.85,0,2.55
		L2,113.286V108.175z M2,115.356l2.92,2.92l49.12-49.13c2.89-2.88,2.89-7.57,0-10.45c-0.44-0.45-0.92-0.81-1.44-1.11l8.19-8.2
		l-3.93-3.95L2,100.267V2h142.02v47.916l-15.4,15.419c-2.88,2.87-2.88,7.57,0,10.44c0.7,0.7,0.7,1.85,0,2.55l-19.36,19.36
		c-0.72,0.71-1.85,0.72-2.55,0.02c-0.71-0.72-0.71-1.87,0-2.57l19.27-19.27l-3.96-3.94l-18.93,18.93
		c-2.89,2.88-2.91,7.609-0.01,10.479c2.87,2.88,7.58,2.86,10.46-0.029l18.69-18.7c2.88-2.87,2.88-7.57,0-10.44
		c-0.7-0.7-0.7-1.85,0-2.56l11.79-11.799v5.119l-9.15,9.15l3.96,3.93l5.19-5.19v5.2l-32.78,32.78l3.95,3.96l25.22-25.22l1.28,1.271
		c0.7,0.71,0.7,1.84,0,2.539l-19.6,19.32l-34.05,34.061h-5.2l23.4-23.4c2.87-2.87,2.87-7.57,0-10.44c-2.88-2.88-7.57-2.88-10.45,0
		l-18.94,18.95l3.93,3.931l19.29-19.271c0.7-0.7,1.85-0.7,2.56,0c0.7,0.7,0.7,1.85,0,2.55l-20.82,20.82
		c-0.31-0.521-0.67-1-1.12-1.44c-2.87-2.89-7.56-2.89-10.44-0.01l-8.31,8.311h-5.2l41.34-41.32l-3.96-3.95l-45.27,45.271h-5.1
		l47.82-47.83l-3.96-3.95l-51.76,51.78H2V115.356z M74.937,144.726H69.83l4.7-4.7c0.7-0.7,1.85-0.7,2.55,0.02
		c0.7,0.7,0.7,1.83,0,2.53L74.937,144.726z M128.71,143.156l-1.57,1.57h-5.11l4.13-4.131c0.7-0.699,1.85-0.699,2.55,0
		C129.41,141.295,129.41,142.446,128.71,143.156z M134.038,144.726c0.941-2.62,0.371-5.661-1.718-7.74
		c-0.43-0.45-0.91-0.811-1.44-1.11l8.2-8.22l-3.94-3.94l-21,21.011h-5.209l9.07-9.07l-3.94-3.96l-13.021,13.03H95.93l18.13-18.131
		l6.49,6.511l3.63-3.62l-6.51-6.5l3.89-3.891l22.46-22.176v47.807H134.038z"/>
</g>
</svg>
